<?xml version="1.0" encoding="utf-8"?>
<!-- Generator: Adobe Illustrator 21.0.0, SVG Export Plug-In . SVG Version: 6.00 Build 0)  -->
<svg version="1.1" id="Layer_1" xmlns="http://www.w3.org/2000/svg" xmlns:xlink="http://www.w3.org/1999/xlink" x="0px" y="0px"
	 viewBox="0 0 1382 768" style="enable-background:new 0 0 1382 768;" xml:space="preserve">
<style type="text/css">
	.st0{opacity:0.1;}
	.st1{fill:#FFFFFF;}
</style>
<title>Artboard 1</title>
<g class="st0">
	<path class="st1" d="M58.3,522.5v-38.1h162.6v38.1H58.3z M1,601.8h37.2V564H1V601.8z M117.3,601.8h214.1V564H117.3V601.8z
		 M768.6,203.9V166h-85.7v38L768.6,203.9z M599.8,203.9l79.7-79.7h239.1v-38H663.8L584.1,166H465.2v38L599.8,203.9z M680,325.8
		l-21.1-21.1l20.6-20.7h291.4v-38H663.8L632,277.8L600.2,246H388v38h196.5l20.7,20.7l-21.1,21.1H271.3v38h328.5l32.2-32.2l32.2,32.2
		H804v-38H680z M311.1,522.5h288.7l79.7-79.7h265.9v-38H663.8l-79.7,79.7h-273L311.1,522.5z M428.4,404.7v38h154.1v-38H428.4z
		 M5.7,404.7v38h337.2v-38H5.7z M905.6,522.5v-38.1H682.9v38.1H905.6z M327.1,681.5h157.1v-37.8H327L327.1,681.5z M774.5,681.5
		h196.5v-37.8H774.5L774.5,681.5z M518,564H387.8v38h114.5l77.5,77.5l26.9-26.9L518,564z M807.9,602v-38h-56l-63.1,63.1l-62.2-62.2
		l-26.9,26.9l89.1,89.1l78.8-78.8H807.9z M963.6,124.2h125.6v-38H963.6V124.2z M1382,203.9V166h-194.6v38L1382,203.9z M1104.3,203.9
		l79.7-79.7h198v-38h-213.7l-79.7,79.8H810.2v38L1104.3,203.9z M1184.4,325.8l-21.1-21.1L1184,284h198v-38h-213.7l-31.8,31.8
		l-31.8-31.8h-95v38h79.3l20.7,20.7l-21.1,21.1H880.2v38h224l32.2-32.2l32.2,32.2H1382v-38H1184.4z M947.2,522.5h157.1l79.7-79.7
		h198v-38h-213.7l-79.7,79.7H947.2V522.5z M990.3,404.7v38h96.7v-38H990.3z M1382,522.5v-38.1h-194.6v38.1H1382z M1279,681.5h103
		v-37.8h-103V681.5z M1022.4,564H878.8v38h127.9l77.5,77.5l26.9-26.9L1022.4,564z M1382,602v-38h-125.6l-63.1,63.1l-62.2-62.2
		l-26.9,26.9l89.1,89.1l78.8-78.8L1382,602z"/>
</g>
</svg>
