<svg xmlns="http://www.w3.org/2000/svg" viewBox="0 0 1382 768">
  <path fill="#fff" d="M58.3 522.5v-38.1h162.6v38.1H58.3zM1 601.8h37.2V564H1v37.8zm116.3 0h214.1V564H117.3v37.8zm651.3-397.9V166h-85.7v38l85.7-.1zm-168.8 0l79.7-79.7h239.1v-38H663.8L584.1 166H465.2v38l134.6-.1zM680 325.8l-21.1-21.1 20.6-20.7h291.4v-38H663.8L632 277.8 600.2 246H388v38h196.5l20.7 20.7-21.1 21.1H271.3v38h328.5l32.2-32.2 32.2 32.2H804v-38H680zM311.1 522.5h288.7l79.7-79.7h265.9v-38H663.8l-79.7 79.7h-273v38zm117.3-117.8v38h154.1v-38H428.4zm-422.7 0v38h337.2v-38H5.7zm899.9 117.8v-38.1H682.9v38.1h222.7zm-578.5 159h157.1v-37.8H327l.1 37.8zm447.4 0H971v-37.8H774.5v37.8zM518 564H387.8v38h114.5l77.5 77.5 26.9-26.9L518 564zm289.9 38v-38h-56l-63.1 63.1-62.2-62.2-26.9 26.9 89.1 89.1 78.8-78.8h40.3zm155.7-477.8h125.6v-38H963.6v38zm418.4 79.7V166h-194.6v38l194.6-.1zm-277.7 0l79.7-79.7h198v-38h-213.7l-79.7 79.8H810.2v38l294.1-.1zm80.1 121.9l-21.1-21.1L1184 284h198v-38h-213.7l-31.8 31.8-31.8-31.8h-95v38h79.3l20.7 20.7-21.1 21.1H880.2v38h224l32.2-32.2 32.2 32.2H1382v-38h-197.6zM947.2 522.5h157.1l79.7-79.7h198v-38h-213.7l-79.7 79.7H947.2v38zm43.1-117.8v38h96.7v-38h-96.7zM1382 522.5v-38.1h-194.6v38.1H1382zm-103 159h103v-37.8h-103v37.8zM1022.4 564H878.8v38h127.9l77.5 77.5 26.9-26.9-88.7-88.6zm359.6 38v-38h-125.6l-63.1 63.1-62.2-62.2-26.9 26.9 89.1 89.1 78.8-78.8 109.9-.1z" opacity=".1"/>
</svg>
