<svg xmlns="http://www.w3.org/2000/svg" xmlns:xlink="http://www.w3.org/1999/xlink" data-selfie-guide="" font-family="'ibm-plex-sans', sans-serif" version="1" viewBox="0 0 1024 768">
  <g data-pretend-ipad="">
    <path fill="#40D5BB" d="M583 525V394c0-43-34-77-76-77s-76 34-76 77v131h152z"/>
    <path fill="#17616B" d="M440 390h-2c-7-1-12-8-11-15 3-16 8-35 25-51 6-4 14-4 18 1s4 14-1 18a56 56 0 0 0-17 36c-1 6-6 11-12 11z"/>
    <linearGradient id="a" x1="568" x2="574" y1="353" y2="374" gradientUnits="userSpaceOnUse">
      <stop offset="0" stop-color="#13525a"/>
      <stop offset="1" stop-color="#175b65"/>
    </linearGradient>
    <path fill="url(#a)" d="M574 386c-6 0-12-5-13-11-1-7-2-15-6-22a13 13 0 0 1 22-12c6 11 8 22 9 30 1 7-4 14-10 15h-2z"/>
    <linearGradient id="b" x1="536" x2="547" y1="319" y2="308" gradientUnits="userSpaceOnUse">
      <stop offset="0" stop-color="#13525a"/>
      <stop offset="1" stop-color="#175b65"/>
    </linearGradient>
    <path fill="url(#b)" d="M569 327c-13-16-26-27-46-28s-17 24-17 24l63 4z"/>
    <path fill="#17616B" d="M467 318c9-24 34-29 50-21 15 7 17 32 46 28 28-4 39-12 39-12s-3 13-20 30c-16 18-52 20-66 17-13-4-30-10-39-19s-12-17-10-23z"/>
    <path fill="#008673" d="M528 417l-18-41h75l-12 42h-45zm-87 0l-12-41h75l-17 42h-46z"/>
    <path fill="#00A78F" d="M469 414l16-34h-17l-16 34zm76-34l16 34h-17l-16-34z"/>
    <path fill="#00BAA1" d="M580 380l-10 34h-40l-14-34h64m-82 0l-14 34h-40l-10-34h64m93-8H424l14 50h52l17-43 18 42h51l15-49z"/>
    <path fill="#133A32" d="M508 456c-20 0-35-8-35-8-3-2-4-5-3-8 2-2 5-3 8-2 0 0 13 7 30 7 14 0 29-7 29-7 3-1 6 0 7 3 1 2 0 6-2 7-1 0-17 8-34 8z"/>
    <path fill="#FFF" d="M679 530H345c-22 0-39-17-39-38V302c0-21 17-39 39-39h334c21 0 39 18 39 39v190c0 21-18 38-39 38zM345 268c-19 0-34 15-34 34v190c0 18 15 33 34 33h334c19 0 34-15 34-33V302c0-19-15-34-34-34H345z"/>
    <path fill="#FFF" d="M711 575H313c-27 0-49-22-49-49V267c1-26 22-48 49-48h398c26 0 48 22 48 48v259c0 27-22 49-48 49zM313 224c-24 0-44 19-44 43v259c1 24 20 43 44 43h398c24 0 43-19 43-43V267c0-24-19-43-43-43H313z"/>
    <circle cx="685" cy="398" r="10" fill="#FFF"/>
    <image width="512" height="512" overflow="visible" transform="translate(673 355) scale(.04693)" xlink:href="camera_orientation.png"/>
  </g>
  <g data-turn-camera="">
    <text transform="translate(820 345)">
      <tspan x="0" y="0" fill="#FFF" font-size="16" font-weight="bold">Tap this button to</tspan><tspan x="0" y="24" fill="#FFF" font-size="16" font-weight="bold">turn the camera around</tspan>
    </text>
    <path fill="#FFBA20" d="M811 340c-7-5-15-8-24-9-8-1-17 0-25 2a118 118 0 0 0-40 18l-2 1-1 1-6-10c-5 8-8 17-11 25 8-2 17-3 25-3l-6-10 2-1 6-4a142 142 0 0 1 34-14c8-2 16-3 24-2s16 4 22 8l2-2z"/>
  </g>
  <g data-take-photo="">
    <text transform="translate(820 437)">
      <tspan x="0" y="0" fill="#FFF" font-size="16" font-weight="bold">Tap this button</tspan><tspan x="0" y="24" fill="#FFF" font-size="16" font-weight="bold">to take your photo</tspan>
    </text>
    <path fill="#FFBA20" d="M809 433c-6 5-14 7-22 8s-17 0-24-2l-24-8-10-6-6-3-2-2 6-10c-8 0-17-1-25-3 3 9 6 17 11 25l6-9h1l2 1 5 3 11 7 24 8a62 62 0 0 0 49-6l-2-3z"/>
  </g>
  <g data-look-here="">
    <text transform="translate(89 400)">
      <tspan x="0" y="0" fill="#FFF" font-size="16" font-weight="bold">Look over here</tspan><tspan x="0" y="24" fill="#FFF" font-size="16" font-weight="bold">at the camera</tspan>
    </text>
    <path fill="#FFBA20" d="M211 398h43v12l23-13-23-14v12h-43z"/>
  </g>
</svg>
