<?xml version="1.0" encoding="utf-8"?>
<?xml-stylesheet href="/css/main.css" type="text/css"?>
<svg version="1.1" id="Layer_1" xmlns="http://www.w3.org/2000/svg" xmlns:xlink="http://www.w3.org/1999/xlink" x="0px" y="0px"
     viewBox="0 0 1024 768" enable-background="new 0 0 1024 768" xml:space="preserve" data-selfie-guide="">
<g id="pretend-ipad" data-pretend-ipad="">
    <g>
        <path id="body-2" fill="#40D5BB" d="M583.3,524.7V394.3c0-42.9-34-77.7-76-77.7l0,0c-42,0-76,34.8-76,77.7v130.3H583.3z"/>
        <g>
            <path fill="#17616B" d="M439.5,389.9c-0.6,0-1.3,0-1.9-0.1c-6.9-1.1-11.6-7.5-10.6-14.4c2.5-16.7,7.6-35.8,25.4-51.2
                c5.3-4.5,13.2-3.9,17.8,1.3s3.9,13.2-1.3,17.8c-11,9.4-14.7,21.2-17,35.9C451,385.4,445.6,389.9,439.5,389.9z"/>
            <linearGradient id="SVGID_1_" gradientUnits="userSpaceOnUse" x1="568.2557" y1="352.6519" x2="574.1523" y2="374.1067">
                <stop  offset="0" style="stop-color:#13525A"/>
                <stop  offset="1" style="stop-color:#175B65"/>
            </linearGradient>
            <path fill="url(#SVGID_1_)" d="M573.6,385.7c-6.1,0-11.5-4.5-12.5-10.7c-1.1-6.9-2.6-15-6.4-22.5c-3.1-6.2-0.7-13.8,5.6-17
                c6.2-3.1,13.8-0.7,17,5.6c5.4,10.7,7.6,21.7,8.8,30.1c1.1,6.9-3.7,13.3-10.6,14.4C574.9,385.6,574.2,385.7,573.6,385.7z"/>
            <linearGradient id="back_of_hair_1_" gradientUnits="userSpaceOnUse" x1="535.8232" y1="319.236" x2="547.1782" y2="307.881">
                <stop  offset="0" style="stop-color:#13525A"/>
                <stop  offset="1" style="stop-color:#175B65"/>
            </linearGradient>
            <path id="back_of_hair_2_" fill="url(#back_of_hair_1_)" d="M569,327.3c-12.6-16.8-26.3-27.3-46.3-28.4
                c-20-1.1-16.8,24.2-16.8,24.2L569,327.3z"/>
            <path id="front_hair_1_" fill="#17616B" d="M467.1,317.6c8.4-23.2,33.6-28.4,49.4-21c15.8,7.4,17.9,32.6,46.3,28.4
                c28.4-4.2,38.9-11.6,38.9-11.6s-3,12.6-19.4,30c-16.4,17.3-52.1,19.5-65.8,16.3c-13.7-3.2-30.5-9.5-40-18.9
                S465,323.5,467.1,317.6z"/>
        </g>
        <path fill="#008673" d="M527.5,417.4L510.2,376h75.3l-12.1,41.5H527.5z M441.2,417.4L429.1,376h75.3l-17.3,41.5H441.2z"/>
        <g opacity="0.5">
            <polygon fill="#00A78F" points="469.2,413.7 484.8,379.7 467.7,379.7 452.1,413.7             "/>
        </g>
        <g opacity="0.5">
            <polygon fill="#00A78F" points="545.2,379.7 560.8,413.7 543.7,413.7 528.1,379.7             "/>
        </g>
        <path fill="#00BAA1" d="M580.1,380l-9.8,33.5h-40.2l-14-33.5H580.1 M498.4,380l-14,33.5h-40.2l-9.8-33.5H498.4 M590.8,372h-80.4
            h-6.2h-80.4l14.4,49.5h51.5l17.5-42.1l17.5,42.1h51.5L590.8,372L590.8,372z"/>
        <path fill="#133A32" d="M507.7,456c-19.7,0-34.4-7.8-35-8.2c-2.7-1.4-3.7-4.8-2.2-7.5c1.4-2.7,4.8-3.7,7.4-2.2l0,0
            c0.1,0.1,13,6.8,29.8,6.8c14.6,0,29-6.9,29.2-7c2.7-1.3,6-0.2,7.3,2.6c1.3,2.7,0.2,6-2.6,7.3C541,448.2,524.8,456,507.7,456z"/>
    </g>
    <g>
        <path fill="#FFFFFF" d="M679,530H344.5c-21.2,0-38.5-17.3-38.5-38.5V301.8c0-21.2,17.3-38.5,38.5-38.5H679
            c21.2,0,38.5,17.3,38.5,38.5v189.7C717.5,512.8,700.2,530,679,530z M344.5,268.3c-18.5,0-33.5,15-33.5,33.5v189.7
            c0,18.5,15,33.5,33.5,33.5H679c18.5,0,33.5-15,33.5-33.5V301.8c0-18.5-15-33.5-33.5-33.5H344.5z"/>
    </g>
    <g>
        <path fill="#FFFFFF" d="M710.8,574.5H312.7c-26.6,0-48.2-21.6-48.2-48.2V267.2c0-26.6,21.6-48.2,48.2-48.2h398.1
            c26.6,0,48.2,21.6,48.2,48.2v259.1C759,552.8,737.4,574.5,710.8,574.5z M312.7,223.9c-23.8,0-43.2,19.4-43.2,43.2v259.1
            c0,23.8,19.4,43.2,43.2,43.2h398.1c23.8,0,43.2-19.4,43.2-43.2V267.2c0-23.8-19.4-43.2-43.2-43.2H312.7z"/>
    </g>
    <g opacity="0.2">
        <path fill="#FFFFFF" d="M735.4,410.3c-6.6,0-12-5.4-12-12s5.4-12,12-12s12,5.4,12,12S742,410.3,735.4,410.3z M735.4,390.3
            c-4.4,0-8,3.6-8,8s3.6,8,8,8s8-3.6,8-8S739.8,390.3,735.4,390.3z"/>
    </g>
    <g opacity="0.2">
        <path fill="#FFFFFF" d="M287.5,401.2c-2.7,0-4.8-2.2-4.8-4.8s2.2-4.8,4.8-4.8c2.7,0,4.8,2.2,4.8,4.8S290.1,401.2,287.5,401.2z
             M287.5,395.5c-0.5,0-0.8,0.4-0.8,0.8s0.4,0.8,0.8,0.8c0.5,0,0.8-0.4,0.8-0.8S287.9,395.5,287.5,395.5z"/>
    </g>
    <circle fill="#FFFFFF" cx="685.4" cy="398.3" r="10"/>

        <image overflow="visible" width="512" height="512" xlink:href="camera_orientation.png"  transform="matrix(4.692890e-02 0 0 4.692890e-02 672.9862 354.7435)">
    </image>
</g>
<g id="turn-camera" data-turn-camera="">
    <text transform="matrix(1 0 0 1 819.832 345.1824)"><tspan x="0" y="0" fill="#FFFFFF" font-size="16px" font-weight="bold">Tap this button to</tspan><tspan x="0" y="24" fill="#FFFFFF" font-size="16px" font-weight="bold">turn the camera around</tspan></text>
    <g>
        <path fill="#FFBA20" d="M811.1,339.7c-7.1-4.8-15.5-7.6-24-8.5c-8.5-0.9-17.1,0-25.3,1.9c-8.2,1.9-16.1,5-23.7,8.6
            c-3.8,1.9-7.5,3.8-11.1,6c-1.8,1.1-3.6,2.2-5.3,3.3l-2.1,1.3l-0.6,0.4l-6.4-9.6c-4.3,8.2-7.9,16.5-10.8,24.7
            c8.6-1.6,17.2-2.6,25.4-2.9l-6.4-9.6l0.6-0.4l2-1.3c1.7-1.1,3.5-2.2,5.2-3.3c3.5-2.1,7.2-4,10.9-5.8c7.4-3.6,15.1-6.5,23.1-8.4
            c7.9-1.9,16.2-2.7,24.2-1.9c8,0.8,15.9,3.5,22.5,8L811.1,339.7z"/>
    </g>
</g>
<g id="take-photo" data-take-photo="">
    <text transform="matrix(1 0 0 1 819.832 437.4395)"><tspan x="0" y="0" fill="#FFFFFF" font-size="16px" font-weight="bold">Tap this button</tspan><tspan x="0" y="24" fill="#FFFFFF" font-size="16px" font-weight="bold">to take your photo</tspan></text>
    <g>
        <path fill="#FFBA20" d="M809.3,433c-6.7,4.5-14.5,7.2-22.5,8c-8.1,0.9-16.3,0-24.2-1.9c-8-1.9-15.7-4.8-23.1-8.4
            c-3.7-1.8-7.3-3.8-10.9-5.8c-1.8-1.1-3.5-2.1-5.2-3.3l-2-1.3l-0.6-0.4l6.4-9.6c-8.3-0.3-16.8-1.3-25.4-2.9
            c2.9,8.3,6.5,16.5,10.8,24.7l6.4-9.6l0.6,0.4l2.1,1.3c1.7,1.2,3.6,2.2,5.3,3.3c3.6,2.1,7.3,4.1,11.1,6c7.6,3.6,15.5,6.7,23.7,8.6
            c8.2,1.9,16.8,2.9,25.3,1.9c8.5-0.9,16.9-3.7,24-8.5L809.3,433z"/>
    </g>
</g>
<g id="look-here" data-look-here="">
    <text transform="matrix(1 0 0 1 89.4985 400.0889)"><tspan x="0" y="0" fill="#FFFFFF" font-size="16px" font-weight="bold">Look over here</tspan><tspan x="0" y="24" fill="#FFFFFF" font-size="16px" font-weight="bold">at the camera</tspan></text>
    <g>
        <polygon fill="#FFBA20" points="211.3,398.1 254.2,398.1 254.2,409.6 276.9,396.5 254.2,383.3 254.2,394.9 211.3,394.9"/>
    </g>
</g>
</svg>
